<svg width="128" height="81" viewBox="0 0 128 81" fill="none" xmlns="http://www.w3.org/2000/svg">
<path d="M3 22.2187L15.2 13.1093C22.4361 7.70641 32.3639 7.70641 39.6 13.1093V13.1093C46.8361 18.5123 56.7639 18.5123 64 13.1093V13.1093C71.2361 7.70641 81.1639 7.70641 88.4 13.1093V13.1093C95.6361 18.5123 105.564 18.5122 112.8 13.1093L125 4" stroke="#00CEAA" stroke-width="7.808"/>
<path d="M3 48.2451L15.2 40.4371C22.637 35.6774 32.163 35.6774 39.6 40.4371V40.4371C47.037 45.1968 56.563 45.1968 64 40.4371V40.4371C71.437 35.6774 80.963 35.6774 88.4 40.4371V40.4371C95.837 45.1968 105.363 45.1968 112.8 40.4371L125 32.6291" stroke="#00CEAA" stroke-width="7.808"/>
<path d="M3 76.8752L15.2 67.7659C22.4361 62.363 32.3639 62.363 39.6 67.7659V67.7659C46.8361 73.1688 56.7639 73.1688 64 67.7659V67.7659C71.2361 62.363 81.1639 62.363 88.4 67.7659V67.7659C95.6361 73.1688 105.564 73.1688 112.8 67.7659L125 58.6566" stroke="#00CEAA" stroke-width="7.808"/>
</svg>
