<svg width="60" height="37" viewBox="0 0 60 37" fill="none" xmlns="http://www.w3.org/2000/svg">
<path d="M2 10.3627L7.6 6.18133C10.9215 3.7013 15.4785 3.7013 18.8 6.18133V6.18133C22.1215 8.66136 26.6785 8.66136 30 6.18133V6.18133C33.3215 3.7013 37.8785 3.7013 41.2 6.18133V6.18133C44.5215 8.66136 49.0785 8.66136 52.4 6.18133L58 2" stroke="#00CEAA" stroke-width="3.584"/>
<path d="M2 22.3094L7.6 18.7254C11.0137 16.5406 15.3863 16.5406 18.8 18.7254V18.7254C22.2137 20.9101 26.5863 20.9101 30 18.7254V18.7254C33.4137 16.5406 37.7863 16.5406 41.2 18.7254V18.7254C44.6137 20.9101 48.9863 20.9101 52.4 18.7254L58 15.1414" stroke="#00CEAA" stroke-width="3.584"/>
<path d="M2 35.451L7.6 31.2697C10.9215 28.7896 15.4785 28.7896 18.8 31.2697V31.2697C22.1215 33.7497 26.6785 33.7497 30 31.2697V31.2697C33.3215 28.7896 37.8785 28.7896 41.2 31.2697V31.2697C44.5215 33.7497 49.0785 33.7497 52.4 31.2697L58 27.0883" stroke="#00CEAA" stroke-width="3.584"/>
</svg>
