<svg width="118" height="42" viewBox="0 0 118 42" fill="none" xmlns="http://www.w3.org/2000/svg">
<g opacity="0.93">
<path fill-rule="evenodd" clip-rule="evenodd" d="M50.4289 22.6947C51.612 21.6187 52.201 20.2308 52.201 18.5259C52.201 16.8365 51.612 15.4539 50.4289 14.3727C49.2457 13.2967 47.726 12.7561 45.8698 12.7561H41.7734V24.2853H45.8698C47.7365 24.2905 49.2562 23.7603 50.4289 22.6947ZM45.7068 14.4247C47.1634 14.4247 48.2992 14.7937 49.1037 15.5266C49.9241 16.2751 50.329 17.2732 50.329 18.5259C50.329 19.7786 49.9188 20.7766 49.1037 21.5251C48.2992 22.2633 47.1634 22.6271 45.7068 22.6271H43.6034V14.4247H45.7068ZM63.7749 23.5836V21.7539C62.8914 22.4556 61.7871 22.8091 60.4568 22.8091C59.2052 22.8091 58.1746 22.4088 57.3595 21.6083C56.5392 20.7974 56.1343 19.7682 56.1343 18.5259C56.1343 17.2836 56.5392 16.2648 57.3437 15.4643C58.1641 14.6534 59.179 14.2479 60.3937 14.2479C61.5032 14.2375 62.597 14.5546 63.5277 15.1524V13.3227C62.6075 12.8081 61.561 12.5482 60.3779 12.5482C58.611 12.5482 57.1492 13.1147 56.0028 14.2427C54.8407 15.3603 54.2623 16.7897 54.2623 18.5259C54.2623 20.262 54.8407 21.6915 56.0028 22.8247C57.186 23.9422 58.6426 24.5036 60.3779 24.5036C61.6715 24.5036 62.802 24.1969 63.7749 23.5836ZM67.8344 15.5266L71.0683 19.8774H72.1305L75.3645 15.5266V24.2905H77.1892V12.7613H75.3645L71.6363 17.9489L67.8712 12.7613H66.015V24.2905H67.8396V15.5266H67.8344ZM80.6177 23.3185C81.5011 24.1086 82.5686 24.5036 83.8149 24.5036C85.0611 24.5036 86.0655 24.2385 86.8174 23.7135V22.2165C86.0287 22.6895 85.1242 22.9442 84.1987 22.939C83.3574 22.939 82.6632 22.7467 82.1164 22.362C81.5695 21.9774 81.2382 21.4472 81.1278 20.7662H87.3591V20.3036C87.3591 18.6766 86.7859 17.4603 85.6343 16.6494C85.0506 16.2128 84.3354 15.9893 83.4941 15.9893C82.2689 15.9893 81.2592 16.3947 80.4757 17.2056C79.7027 18.0061 79.3136 19.0197 79.3136 20.236C79.3241 21.5044 79.7553 22.5284 80.6177 23.3185ZM81.8534 18.0425C82.2689 17.6734 82.7895 17.4915 83.4205 17.4915C84.083 17.4915 84.6036 17.689 84.977 18.0841C85.3293 18.4427 85.5396 18.9157 85.5554 19.4199H81.1436C81.1961 18.8846 81.4485 18.3907 81.8534 18.0425ZM95.6517 23.1885V24.2905H97.4395V12.7613H95.6517V17.3096C94.9681 16.4311 94.0005 15.9945 92.749 15.9893C91.5974 15.9893 90.6561 16.3999 89.9147 17.2264C89.1732 18.0373 88.8051 19.0457 88.8051 20.2412C88.8051 21.4472 89.1732 22.4608 89.9147 23.2717C90.6561 24.093 91.6026 24.5088 92.749 24.5088C94.0005 24.5036 94.9681 24.067 95.6517 23.1885ZM91.3608 22.1645C90.8612 21.6395 90.614 20.9949 90.614 20.236C90.614 19.4875 90.8612 18.8586 91.3608 18.344C91.8603 17.819 92.4808 17.5539 93.2328 17.5539C93.7323 17.5539 94.2266 17.6942 94.6473 17.9593C95.068 18.2088 95.4098 18.5675 95.6517 18.9885V21.494C95.4203 21.9254 95.0732 22.2841 94.6578 22.5388C94.2319 22.8039 93.7376 22.9442 93.2328 22.9442C92.4808 22.939 91.855 22.6843 91.3608 22.1645ZM101.936 16.2024H100.142V24.2905H101.936V16.2024ZM101.83 14.435C102.046 14.2219 102.162 13.936 102.156 13.6346C102.162 13.3331 102.046 13.042 101.83 12.8289C101.625 12.6157 101.341 12.4962 101.042 12.5014C100.737 12.4962 100.447 12.6157 100.237 12.8289C100.021 13.042 99.9058 13.3331 99.9163 13.6346C99.9058 13.9308 100.027 14.2219 100.237 14.435C100.447 14.6482 100.742 14.7625 101.042 14.7573C101.336 14.7625 101.62 14.643 101.83 14.435ZM111.79 22.6947C111.664 22.5544 111.601 22.3568 111.601 22.1021V19.0873C111.601 18.11 111.259 17.3511 110.58 16.8053C109.902 16.2596 108.987 15.9893 107.836 15.9893C106.663 15.9893 105.674 16.218 104.87 16.6806V18.2452C105.637 17.767 106.531 17.5175 107.441 17.5227C109.034 17.5227 109.828 18.11 109.828 19.2848V19.7318C109.077 19.316 108.209 19.1081 107.226 19.1081C106.295 19.1081 105.522 19.342 104.907 19.815C104.276 20.2776 103.96 20.9326 103.96 21.7902C103.96 22.6479 104.249 23.3133 104.822 23.7811C105.406 24.2645 106.137 24.5036 107.01 24.5036C108.272 24.5036 109.271 24.0878 110.013 23.2509C110.223 24.0202 110.791 24.4048 111.722 24.4048C112.174 24.4048 112.521 24.3165 112.768 24.1398V22.7883C112.621 22.8662 112.452 22.9078 112.289 22.9026C112.095 22.913 111.911 22.835 111.79 22.6947ZM108.798 22.6999C108.393 22.8766 107.951 22.9702 107.504 22.9702C106.963 22.9702 106.537 22.861 106.221 22.6427C105.906 22.4244 105.748 22.1021 105.748 21.6863C105.737 21.312 105.932 20.9586 106.253 20.7662C106.589 20.5479 107.057 20.4388 107.651 20.4388C108.414 20.4388 109.161 20.6363 109.823 21.0157V22.0034C109.539 22.3048 109.187 22.544 108.798 22.6999Z" fill="white"/>
<path fill-rule="evenodd" clip-rule="evenodd" d="M42.0465 27.5391H41.9046V31.1414H42.0465V27.5391ZM41.8415 26.0785C41.7521 26.1668 41.7521 26.25 41.8415 26.3384C41.9309 26.4267 42.0202 26.4267 42.1096 26.3384C42.199 26.25 42.199 26.1668 42.1096 26.0785C42.0202 25.9901 41.9309 25.9901 41.8415 26.0785ZM45.4803 27.8458C45.7695 27.6743 46.1008 27.5807 46.4426 27.5755C47.3313 27.5755 47.7783 28.0433 47.7783 28.979V31.1414H47.9202V28.953C47.9202 28.4696 47.794 28.0953 47.5469 27.8354C47.2997 27.5755 46.9369 27.4456 46.4584 27.4456C46.1271 27.4456 45.7958 27.5235 45.5066 27.6743C45.2279 27.8094 44.9808 28.0069 44.7862 28.2513V27.5391H44.6442V31.1414H44.7862V28.4748C44.9597 28.2149 45.2016 28.0017 45.4803 27.8458ZM52.4005 31.0634V30.9178C52.2006 31.0426 51.9693 31.1102 51.7274 31.1102C51.2226 31.1102 50.9702 30.8451 50.9702 30.3149V27.6743H52.4636V27.5443H50.9702V26.3176H50.8282V27.5443H49.8186V27.6743H50.8282V30.3513C50.8282 30.6475 50.9071 30.8711 51.0701 31.0166C51.2278 31.1673 51.4487 31.2401 51.7274 31.2401C51.964 31.2453 52.2006 31.1829 52.4005 31.0634ZM57.4591 30.9178V30.7723C57.1331 30.9958 56.7334 31.1102 56.2497 31.1102C55.7133 31.1102 55.2663 30.9438 54.9087 30.6112C54.5564 30.2733 54.3829 29.8522 54.3829 29.348V29.2961H57.7588V29.2441C57.7588 29.1037 57.7431 28.9634 57.7168 28.8282C57.68 28.6671 57.6274 28.506 57.5538 28.3552C57.4801 28.1941 57.3802 28.0433 57.254 27.9082C57.1173 27.7678 56.949 27.6587 56.7597 27.5859C56.5389 27.4975 56.3022 27.4508 56.0604 27.456C55.524 27.456 55.0875 27.6327 54.751 27.9914C54.4092 28.3552 54.2357 28.8074 54.2357 29.348C54.2357 29.8938 54.4302 30.3461 54.8141 30.7047C55.198 31.0634 55.6765 31.2401 56.2497 31.2401C56.7545 31.2401 57.1594 31.131 57.4591 30.9178ZM54.8719 28.0693C55.1717 27.7418 55.5713 27.5807 56.0656 27.5807C56.318 27.5755 56.5704 27.6275 56.7965 27.7366C56.9964 27.8302 57.1646 27.9758 57.2908 28.1525C57.5012 28.4488 57.6169 28.797 57.6221 29.1557H54.3934C54.4145 28.7555 54.5827 28.3656 54.8719 28.0693ZM60.0989 28.5995C60.2408 28.3188 60.4512 28.0693 60.7141 27.8874C60.9718 27.6899 61.2873 27.5807 61.6133 27.5807V27.4508C61.2715 27.456 60.9455 27.5599 60.6668 27.7522C60.4354 27.9134 60.2408 28.1213 60.0989 28.3656V27.5443H59.9569V31.1466H60.0989V28.5995ZM64.3162 27.8458C64.6054 27.6743 64.9367 27.5807 65.2785 27.5755C66.1671 27.5755 66.6141 28.0433 66.6141 28.979V31.1414H66.7561V28.953C66.7561 28.4696 66.6299 28.0953 66.3827 27.8354C66.1356 27.5755 65.7727 27.4456 65.2942 27.4456C64.9629 27.4456 64.6317 27.5235 64.3372 27.6743C64.0585 27.8094 63.8113 28.0069 63.6168 28.2513V27.5391H63.4748V31.1414H63.6168V28.4748C63.7956 28.2149 64.0322 28.0017 64.3162 27.8458ZM72.1092 30.9178V30.7723C71.7832 30.9958 71.3835 31.1102 70.8998 31.1102C70.3634 31.1102 69.9164 30.9438 69.5588 30.6112C69.2065 30.2733 69.033 29.8522 69.033 29.348V29.2961H72.4089V29.2441C72.4089 29.1037 72.3932 28.9634 72.3669 28.8282C72.3301 28.6671 72.2775 28.506 72.2039 28.3552C72.1302 28.1941 72.0303 28.0433 71.9041 27.9082C71.7674 27.7678 71.5991 27.6587 71.4098 27.5859C71.189 27.4975 70.9523 27.4508 70.7104 27.456C70.1741 27.456 69.7376 27.6327 69.4011 27.9914C69.0593 28.3552 68.8858 28.8074 68.8858 29.348C68.8858 29.8938 69.0803 30.3461 69.4642 30.7047C69.8481 31.0634 70.3266 31.2401 70.8998 31.2401C71.4098 31.2401 71.8095 31.131 72.1092 30.9178ZM69.522 28.0693C69.8218 27.7418 70.2214 27.5807 70.7157 27.5807C70.9681 27.5755 71.2205 27.6275 71.4466 27.7366C71.6465 27.8302 71.8147 27.9758 71.9409 28.1525C72.1513 28.4488 72.267 28.797 72.2722 29.1557H69.0435C69.0646 28.7555 69.2381 28.3656 69.522 28.0693ZM76.5947 31.0634V30.9178C76.3949 31.0426 76.1635 31.1102 75.9216 31.1102C75.4168 31.1102 75.1644 30.8451 75.1644 30.3149V27.6743H76.6578V27.5443H75.1644V26.3176H75.0224V27.5443H74.0128V27.6743H75.0224V30.3513C75.0224 30.6475 75.1013 30.8711 75.2643 31.0166C75.4273 31.1621 75.6429 31.2401 75.9216 31.2401C76.1582 31.2453 76.3896 31.1829 76.5947 31.0634ZM84.7716 30.4812C84.7716 30.6995 84.8242 30.8711 84.9346 30.9906C85.0398 31.1102 85.1923 31.1725 85.3553 31.1725C85.4289 31.1725 85.5078 31.1621 85.5761 31.1362V31.0062C85.5078 31.0322 85.4342 31.0478 85.3605 31.0426C85.2291 31.0478 85.1029 30.9906 85.0293 30.8866C84.9451 30.7619 84.9031 30.6112 84.9083 30.4604V28.7399C84.9083 28.3136 84.7663 27.9966 84.4824 27.7782C84.1984 27.5599 83.8198 27.4508 83.336 27.4508C82.8154 27.4508 82.379 27.5755 82.0319 27.8198V27.9706C82.4105 27.7107 82.8628 27.5703 83.3255 27.5807C83.7883 27.5807 84.1458 27.6795 84.393 27.877C84.6401 28.0745 84.7663 28.3604 84.7663 28.7347V29.3636C84.2931 29.0777 83.7462 28.9218 83.1888 28.9166C82.7261 28.9166 82.3474 29.0258 82.0582 29.2441C81.7795 29.4364 81.6165 29.7483 81.627 30.081C81.627 30.4448 81.769 30.7307 82.053 30.9386C82.3527 31.1414 82.7103 31.2453 83.0731 31.2401C83.7304 31.2505 84.3562 30.9698 84.7716 30.4812ZM82.1687 30.8555C81.9057 30.6787 81.7743 30.4188 81.7743 30.081C81.7743 29.7743 81.9057 29.5248 82.1739 29.3324C82.4421 29.1401 82.7944 29.0465 83.2361 29.0465C83.7515 29.0465 84.2668 29.2025 84.7769 29.5196V30.2733C84.5928 30.5124 84.3562 30.7151 84.088 30.8659C83.7935 31.027 83.4622 31.1154 83.1257 31.1102C82.7892 31.1154 82.4579 31.027 82.1687 30.8555ZM90.4455 32.2745C90.7873 31.9886 90.9608 31.5832 90.9608 31.053V27.5391H90.8188V28.2617C90.435 27.7211 89.8933 27.4508 89.1992 27.4508C88.6261 27.4508 88.158 27.6379 87.7952 28.0173C87.0801 28.7659 87.0801 29.9302 87.7952 30.6787C88.158 31.053 88.6261 31.2401 89.1992 31.2401C89.8933 31.2401 90.435 30.9698 90.8188 30.4292V31.053C90.8188 31.5364 90.6611 31.9159 90.3403 32.181C90.0248 32.4461 89.5884 32.5812 89.0415 32.5812C88.5419 32.5916 88.0529 32.4616 87.6269 32.2121V32.3629C88.0634 32.5968 88.5577 32.7164 89.0572 32.706C89.6409 32.7008 90.1037 32.5604 90.4455 32.2745ZM87.9162 30.6008C87.5796 30.2629 87.3956 29.8107 87.4008 29.3428C87.3903 28.875 87.5744 28.4228 87.9162 28.0901C88.2527 27.7522 88.7207 27.5651 89.2045 27.5755C89.5463 27.5755 89.8828 27.6639 90.172 27.8406C90.456 28.0017 90.6821 28.2409 90.8241 28.5267V30.1537C90.6821 30.4396 90.456 30.6787 90.172 30.8399C89.8828 31.0166 89.5463 31.105 89.2045 31.105C88.7207 31.1206 88.2527 30.9334 87.9162 30.6008ZM96.3981 30.9178V30.7723C96.072 30.9958 95.6671 31.1102 95.1886 31.1102C94.6523 31.1102 94.2053 30.9438 93.8477 30.6112C93.4954 30.2733 93.3166 29.8522 93.3166 29.348V29.2961H96.6925V29.2441C96.6925 29.1037 96.6768 28.9634 96.6505 28.8282C96.6137 28.6671 96.5611 28.506 96.4875 28.3552C96.4138 28.1941 96.3087 28.0433 96.1877 27.9082C96.0457 27.7678 95.8775 27.6587 95.6934 27.5859C95.4726 27.4975 95.2359 27.4508 94.9941 27.456C94.4577 27.456 94.0212 27.6327 93.6847 27.9914C93.3429 28.3552 93.1694 28.8074 93.1694 29.348C93.1694 29.8938 93.3639 30.3461 93.7478 30.7047C94.1317 31.0634 94.6102 31.2401 95.1834 31.2401C95.6934 31.2401 96.0983 31.131 96.3981 30.9178ZM93.8109 28.0693C94.1106 27.7418 94.5103 27.5807 95.0046 27.5807C95.257 27.5755 95.5094 27.6275 95.7355 27.7366C95.9353 27.8302 96.1036 27.9758 96.2298 28.1525C96.4401 28.4488 96.5558 28.797 96.5611 29.1557H93.3324C93.3534 28.7555 93.5217 28.3656 93.8109 28.0693ZM99.7319 27.8458C100.021 27.6743 100.352 27.5807 100.694 27.5755C101.583 27.5755 102.03 28.0433 102.03 28.979V31.1414H102.172V28.953C102.172 28.4696 102.046 28.0953 101.799 27.8354C101.551 27.5755 101.189 27.4456 100.71 27.4456C100.379 27.4456 100.047 27.5235 99.753 27.6743C99.4743 27.8094 99.2271 28.0069 99.0326 28.2513V27.5391H98.8906V31.1414H99.0326V28.4748C99.2166 28.2149 99.4532 28.0017 99.7319 27.8458ZM104.848 30.6787C105.201 31.053 105.669 31.2401 106.247 31.2401C106.71 31.2401 107.11 31.1258 107.451 30.9022V30.7463C107.099 30.9906 106.678 31.1154 106.247 31.105C105.769 31.1154 105.306 30.9334 104.969 30.6008C104.633 30.2629 104.449 29.8107 104.454 29.3428C104.444 28.875 104.628 28.4228 104.969 28.0901C105.301 27.7522 105.769 27.5651 106.247 27.5755C106.647 27.5703 107.036 27.6795 107.378 27.8874V27.7315C107.036 27.5339 106.647 27.43 106.247 27.4404C105.674 27.4404 105.206 27.6275 104.848 28.0069C104.133 28.7659 104.133 29.925 104.848 30.6787ZM110.265 32.4357C110.443 32.2589 110.633 31.9678 110.827 31.5676L112.762 27.5391H112.605L111.017 30.8295L109.397 27.5391H109.239L110.938 30.9958C110.696 31.552 110.48 31.9574 110.291 32.2069C110.107 32.4461 109.886 32.5656 109.623 32.5656C109.455 32.5656 109.292 32.524 109.15 32.4409V32.5812C109.297 32.6592 109.465 32.7008 109.634 32.6956C109.87 32.706 110.102 32.6072 110.265 32.4357Z" fill="white"/>
<path fill-rule="evenodd" clip-rule="evenodd" d="M6.13086 7.79712L21.6854 11.6437L36.7877 7.79712V30.1694C36.7877 30.9855 38.7544 31.4585 38.7544 31.4585H35.1786V10.0427L21.6644 13.4214L7.99236 10.0427V31.4585H6.13086V7.79712Z" fill="white"/>
<path fill-rule="evenodd" clip-rule="evenodd" d="M32.4132 14.96L22.6377 20.4231L32.4658 25.8186L24.9987 20.4283L32.4132 14.96Z" fill="white"/>
<path fill-rule="evenodd" clip-rule="evenodd" d="M11.0586 14.9908C11.0586 14.9908 17.1847 14.6426 20.8288 20.428C17.7684 25.5896 11.6791 25.8443 11.6738 25.8443L11.0796 25.8599L11.0586 14.9908Z" fill="white"/>
<path fill-rule="evenodd" clip-rule="evenodd" d="M11.4639 15.495C11.4639 15.495 17.0536 15.1831 20.3507 20.4071C17.5847 25.0698 12.0738 25.3505 12.0738 25.3505L11.4796 25.3661L11.4639 15.495Z" fill="#EAC63C"/>
<path d="M15.0867 23.5005C15.8476 23.5005 16.4644 22.1576 16.4644 20.5012C16.4644 18.8448 15.8476 17.502 15.0867 17.502C14.3258 17.502 13.709 18.8448 13.709 20.5012C13.709 22.1576 14.3258 23.5005 15.0867 23.5005Z" fill="black"/>
<path fill-rule="evenodd" clip-rule="evenodd" d="M14.9922 17.1172L15.3603 19.8254L15.9124 17.3095" fill="#EAC63C"/>
</g>
</svg>
