<svg width="118" height="42" viewBox="0 0 118 42" fill="none" xmlns="http://www.w3.org/2000/svg">
<g opacity="0.93">
<path fill-rule="evenodd" clip-rule="evenodd" d="M50.4285 22.6947C51.6117 21.6187 52.2006 20.2308 52.2006 18.5259C52.2006 16.8365 51.6117 15.4539 50.4285 14.3727C49.2453 13.2967 47.7257 12.7561 45.8694 12.7561H41.7731V24.2853H45.8694C47.7362 24.2905 49.2559 23.7603 50.4285 22.6947ZM45.7064 14.4247C47.163 14.4247 48.2988 14.7937 49.1034 15.5266C49.9237 16.2751 50.3286 17.2732 50.3286 18.5259C50.3286 19.7786 49.9184 20.7766 49.1034 21.5251C48.2988 22.2633 47.163 22.6271 45.7064 22.6271H43.603V14.4247H45.7064ZM63.7745 23.5836V21.7539C62.8911 22.4556 61.7868 22.8091 60.4564 22.8091C59.2049 22.8091 58.1742 22.4088 57.3592 21.6083C56.5388 20.7974 56.1339 19.7682 56.1339 18.5259C56.1339 17.2836 56.5388 16.2648 57.3434 15.4643C58.1637 14.6534 59.1786 14.2479 60.3933 14.2479C61.5028 14.2375 62.5966 14.5546 63.5273 15.1524V13.3227C62.6071 12.8081 61.5607 12.5482 60.3775 12.5482C58.6107 12.5482 57.1488 13.1147 56.0025 14.2427C54.8404 15.3603 54.2619 16.7897 54.2619 18.5259C54.2619 20.262 54.8404 21.6915 56.0025 22.8247C57.1856 23.9422 58.6422 24.5036 60.3775 24.5036C61.6711 24.5036 62.8017 24.1969 63.7745 23.5836ZM67.834 15.5266L71.068 19.8774H72.1302L75.3641 15.5266V24.2905H77.1888V12.7613H75.3641L71.6359 17.9489L67.8708 12.7613H66.0146V24.2905H67.8393V15.5266H67.834ZM80.6173 23.3185C81.5008 24.1086 82.5682 24.5036 83.8145 24.5036C85.0607 24.5036 86.0651 24.2385 86.8171 23.7135V22.2165C86.0283 22.6895 85.1238 22.9442 84.1984 22.939C83.357 22.939 82.6629 22.7467 82.116 22.362C81.5691 21.9774 81.2378 21.4472 81.1274 20.7662H87.3587V20.3036C87.3587 18.6766 86.7855 17.4603 85.6339 16.6494C85.0502 16.2128 84.3351 15.9893 83.4937 15.9893C82.2685 15.9893 81.2589 16.3947 80.4754 17.2056C79.7024 18.0061 79.3132 19.0197 79.3132 20.236C79.3238 21.5044 79.755 22.5284 80.6173 23.3185ZM81.8531 18.0425C82.2685 17.6734 82.7891 17.4915 83.4201 17.4915C84.0827 17.4915 84.6033 17.689 84.9766 18.0841C85.3289 18.4427 85.5393 18.9157 85.555 19.4199H81.1432C81.1958 18.8846 81.4482 18.3907 81.8531 18.0425ZM95.6513 23.1885V24.2905H97.4392V12.7613H95.6513V17.3096C94.9677 16.4311 94.0001 15.9945 92.7486 15.9893C91.597 15.9893 90.6558 16.3999 89.9143 17.2264C89.1729 18.0373 88.8048 19.0457 88.8048 20.2412C88.8048 21.4472 89.1729 22.4608 89.9143 23.2717C90.6558 24.093 91.6023 24.5088 92.7486 24.5088C94.0001 24.5036 94.9677 24.067 95.6513 23.1885ZM91.3604 22.1645C90.8608 21.6395 90.6137 20.9949 90.6137 20.236C90.6137 19.4875 90.8608 18.8586 91.3604 18.344C91.8599 17.819 92.4804 17.5539 93.2324 17.5539C93.732 17.5539 94.2262 17.6942 94.6469 17.9593C95.0676 18.2088 95.4094 18.5675 95.6513 18.9885V21.494C95.4199 21.9254 95.0729 22.2841 94.6574 22.5388C94.2315 22.8039 93.7372 22.9442 93.2324 22.9442C92.4804 22.939 91.8547 22.6843 91.3604 22.1645ZM101.935 16.2024H100.142V24.2905H101.935V16.2024ZM101.83 14.435C102.046 14.2219 102.161 13.936 102.156 13.6346C102.161 13.3331 102.046 13.042 101.83 12.8289C101.625 12.6157 101.341 12.4962 101.041 12.5014C100.736 12.4962 100.447 12.6157 100.237 12.8289C100.021 13.042 99.9054 13.3331 99.9159 13.6346C99.9054 13.9308 100.026 14.2219 100.237 14.435C100.447 14.6482 100.741 14.7625 101.041 14.7573C101.336 14.7625 101.62 14.643 101.83 14.435ZM111.79 22.6947C111.663 22.5544 111.6 22.3568 111.6 22.1021V19.0873C111.6 18.11 111.258 17.3511 110.58 16.8053C109.902 16.2596 108.987 15.9893 107.835 15.9893C106.663 15.9893 105.674 16.218 104.869 16.6806V18.2452C105.637 17.767 106.531 17.5175 107.441 17.5227C109.034 17.5227 109.828 18.11 109.828 19.2848V19.7318C109.076 19.316 108.209 19.1081 107.225 19.1081C106.294 19.1081 105.521 19.342 104.906 19.815C104.275 20.2776 103.96 20.9326 103.96 21.7902C103.96 22.6479 104.249 23.3133 104.822 23.7811C105.406 24.2645 106.137 24.5036 107.01 24.5036C108.272 24.5036 109.271 24.0878 110.012 23.2509C110.223 24.0202 110.79 24.4048 111.721 24.4048C112.173 24.4048 112.52 24.3165 112.768 24.1398V22.7883C112.62 22.8662 112.452 22.9078 112.289 22.9026C112.095 22.913 111.91 22.835 111.79 22.6947ZM108.797 22.6999C108.393 22.8766 107.951 22.9702 107.504 22.9702C106.962 22.9702 106.536 22.861 106.221 22.6427C105.905 22.4244 105.748 22.1021 105.748 21.6863C105.737 21.312 105.932 20.9586 106.252 20.7662C106.589 20.5479 107.057 20.4388 107.651 20.4388C108.414 20.4388 109.16 20.6363 109.823 21.0157V22.0034C109.539 22.3048 109.187 22.544 108.797 22.6999Z" fill="#333333"/>
<path fill-rule="evenodd" clip-rule="evenodd" d="M42.0464 27.5391H41.9044V31.1414H42.0464V27.5391ZM41.8413 26.0785C41.7519 26.1668 41.7519 26.25 41.8413 26.3384C41.9307 26.4267 42.0201 26.4267 42.1095 26.3384C42.1989 26.25 42.1989 26.1668 42.1095 26.0785C42.0201 25.9901 41.9307 25.9901 41.8413 26.0785ZM45.4801 27.8458C45.7694 27.6743 46.1006 27.5807 46.4424 27.5755C47.3311 27.5755 47.7781 28.0433 47.7781 28.979V31.1414H47.9201V28.953C47.9201 28.4696 47.7939 28.0953 47.5467 27.8354C47.2996 27.5755 46.9367 27.4456 46.4582 27.4456C46.1269 27.4456 45.7956 27.5235 45.5064 27.6743C45.2277 27.8094 44.9806 28.0069 44.786 28.2513V27.5391H44.644V31.1414H44.786V28.4748C44.9595 28.2149 45.2014 28.0017 45.4801 27.8458ZM52.4003 31.0634V30.9178C52.2005 31.0426 51.9691 31.1102 51.7272 31.1102C51.2224 31.1102 50.97 30.8451 50.97 30.3149V27.6743H52.4634V27.5443H50.97V26.3176H50.828V27.5443H49.8184V27.6743H50.828V30.3513C50.828 30.6475 50.9069 30.8711 51.0699 31.0166C51.2276 31.1673 51.4485 31.2401 51.7272 31.2401C51.9638 31.2453 52.2005 31.1829 52.4003 31.0634ZM57.4589 30.9178V30.7723C57.1329 30.9958 56.7333 31.1102 56.2495 31.1102C55.7131 31.1102 55.2661 30.9438 54.9086 30.6112C54.5562 30.2733 54.3827 29.8522 54.3827 29.348V29.2961H57.7587V29.2441C57.7587 29.1037 57.7429 28.9634 57.7166 28.8282C57.6798 28.6671 57.6272 28.506 57.5536 28.3552C57.48 28.1941 57.3801 28.0433 57.2538 27.9082C57.1171 27.7678 56.9489 27.6587 56.7596 27.5859C56.5387 27.4975 56.3021 27.4508 56.0602 27.456C55.5238 27.456 55.0874 27.6327 54.7508 27.9914C54.409 28.3552 54.2355 28.8074 54.2355 29.348C54.2355 29.8938 54.43 30.3461 54.8139 30.7047C55.1978 31.0634 55.6763 31.2401 56.2495 31.2401C56.7543 31.2401 57.1592 31.131 57.4589 30.9178ZM54.8718 28.0693C55.1715 27.7418 55.5711 27.5807 56.0654 27.5807C56.3178 27.5755 56.5702 27.6275 56.7964 27.7366C56.9962 27.8302 57.1645 27.9758 57.2907 28.1525C57.501 28.4488 57.6167 28.797 57.6219 29.1557H54.3932C54.4143 28.7555 54.5825 28.3656 54.8718 28.0693ZM60.0987 28.5995C60.2407 28.3188 60.451 28.0693 60.7139 27.8874C60.9716 27.6899 61.2871 27.5807 61.6131 27.5807V27.4508C61.2713 27.456 60.9453 27.5599 60.6666 27.7522C60.4352 27.9134 60.2407 28.1213 60.0987 28.3656V27.5443H59.9567V31.1466H60.0987V28.5995ZM64.316 27.8458C64.6052 27.6743 64.9365 27.5807 65.2783 27.5755C66.167 27.5755 66.6139 28.0433 66.6139 28.979V31.1414H66.7559V28.953C66.7559 28.4696 66.6297 28.0953 66.3825 27.8354C66.1354 27.5755 65.7726 27.4456 65.294 27.4456C64.9628 27.4456 64.6315 27.5235 64.337 27.6743C64.0583 27.8094 63.8112 28.0069 63.6166 28.2513V27.5391H63.4746V31.1414H63.6166V28.4748C63.7954 28.2149 64.032 28.0017 64.316 27.8458ZM72.109 30.9178V30.7723C71.783 30.9958 71.3834 31.1102 70.8996 31.1102C70.3632 31.1102 69.9162 30.9438 69.5587 30.6112C69.2063 30.2733 69.0328 29.8522 69.0328 29.348V29.2961H72.4088V29.2441C72.4088 29.1037 72.393 28.9634 72.3667 28.8282C72.3299 28.6671 72.2773 28.506 72.2037 28.3552C72.1301 28.1941 72.0301 28.0433 71.9039 27.9082C71.7672 27.7678 71.5989 27.6587 71.4096 27.5859C71.1888 27.4975 70.9522 27.4508 70.7103 27.456C70.1739 27.456 69.7375 27.6327 69.4009 27.9914C69.0591 28.3552 68.8856 28.8074 68.8856 29.348C68.8856 29.8938 69.0801 30.3461 69.464 30.7047C69.8479 31.0634 70.3264 31.2401 70.8996 31.2401C71.4096 31.2401 71.8093 31.131 72.109 30.9178ZM69.5219 28.0693C69.8216 27.7418 70.2212 27.5807 70.7155 27.5807C70.9679 27.5755 71.2203 27.6275 71.4465 27.7366C71.6463 27.8302 71.8145 27.9758 71.9407 28.1525C72.1511 28.4488 72.2668 28.797 72.272 29.1557H69.0433C69.0644 28.7555 69.2379 28.3656 69.5219 28.0693ZM76.5945 31.0634V30.9178C76.3947 31.0426 76.1633 31.1102 75.9214 31.1102C75.4166 31.1102 75.1642 30.8451 75.1642 30.3149V27.6743H76.6576V27.5443H75.1642V26.3176H75.0222V27.5443H74.0126V27.6743H75.0222V30.3513C75.0222 30.6475 75.1011 30.8711 75.2641 31.0166C75.4271 31.1621 75.6427 31.2401 75.9214 31.2401C76.158 31.2453 76.3894 31.1829 76.5945 31.0634ZM84.7714 30.4812C84.7714 30.6995 84.824 30.8711 84.9344 30.9906C85.0396 31.1102 85.1921 31.1725 85.3551 31.1725C85.4287 31.1725 85.5076 31.1621 85.576 31.1362V31.0062C85.5076 31.0322 85.434 31.0478 85.3604 31.0426C85.2289 31.0478 85.1027 30.9906 85.0291 30.8866C84.9449 30.7619 84.9029 30.6112 84.9081 30.4604V28.7399C84.9081 28.3136 84.7662 27.9966 84.4822 27.7782C84.1982 27.5599 83.8196 27.4508 83.3359 27.4508C82.8153 27.4508 82.3788 27.5755 82.0317 27.8198V27.9706C82.4104 27.7107 82.8626 27.5703 83.3253 27.5807C83.7881 27.5807 84.1457 27.6795 84.3928 27.877C84.6399 28.0745 84.7662 28.3604 84.7662 28.7347V29.3636C84.2929 29.0777 83.746 28.9218 83.1886 28.9166C82.7259 28.9166 82.3473 29.0258 82.058 29.2441C81.7793 29.4364 81.6163 29.7483 81.6269 30.081C81.6269 30.4448 81.7688 30.7307 82.0528 30.9386C82.3525 31.1414 82.7101 31.2453 83.0729 31.2401C83.7302 31.2505 84.356 30.9698 84.7714 30.4812ZM82.1685 30.8555C81.9055 30.6787 81.7741 30.4188 81.7741 30.081C81.7741 29.7743 81.9055 29.5248 82.1737 29.3324C82.4419 29.1401 82.7942 29.0465 83.2359 29.0465C83.7513 29.0465 84.2666 29.2025 84.7767 29.5196V30.2733C84.5926 30.5124 84.356 30.7151 84.0878 30.8659C83.7933 31.027 83.4621 31.1154 83.1255 31.1102C82.789 31.1154 82.4577 31.027 82.1685 30.8555ZM90.4453 32.2745C90.7871 31.9886 90.9606 31.5832 90.9606 31.053V27.5391H90.8186V28.2617C90.4348 27.7211 89.8932 27.4508 89.199 27.4508C88.6259 27.4508 88.1579 27.6379 87.795 28.0173C87.0799 28.7659 87.0799 29.9302 87.795 30.6787C88.1579 31.053 88.6259 31.2401 89.199 31.2401C89.8932 31.2401 90.4348 30.9698 90.8186 30.4292V31.053C90.8186 31.5364 90.6609 31.9159 90.3401 32.181C90.0246 32.4461 89.5882 32.5812 89.0413 32.5812C88.5417 32.5916 88.0527 32.4616 87.6268 32.2121V32.3629C88.0632 32.5968 88.5575 32.7164 89.0571 32.706C89.6408 32.7008 90.1035 32.5604 90.4453 32.2745ZM87.916 30.6008C87.5794 30.2629 87.3954 29.8107 87.4006 29.3428C87.3901 28.875 87.5742 28.4228 87.916 28.0901C88.2525 27.7522 88.7205 27.5651 89.2043 27.5755C89.5461 27.5755 89.8826 27.6639 90.1719 27.8406C90.4558 28.0017 90.6819 28.2409 90.8239 28.5267V30.1537C90.6819 30.4396 90.4558 30.6787 90.1719 30.8399C89.8826 31.0166 89.5461 31.105 89.2043 31.105C88.7205 31.1206 88.2525 30.9334 87.916 30.6008ZM96.3979 30.9178V30.7723C96.0719 30.9958 95.667 31.1102 95.1884 31.1102C94.6521 31.1102 94.2051 30.9438 93.8475 30.6112C93.4952 30.2733 93.3164 29.8522 93.3164 29.348V29.2961H96.6924V29.2441C96.6924 29.1037 96.6766 28.9634 96.6503 28.8282C96.6135 28.6671 96.5609 28.506 96.4873 28.3552C96.4137 28.1941 96.3085 28.0433 96.1875 27.9082C96.0456 27.7678 95.8773 27.6587 95.6932 27.5859C95.4724 27.4975 95.2358 27.4508 94.9939 27.456C94.4575 27.456 94.0211 27.6327 93.6845 27.9914C93.3427 28.3552 93.1692 28.8074 93.1692 29.348C93.1692 29.8938 93.3638 30.3461 93.7476 30.7047C94.1315 31.0634 94.61 31.2401 95.1832 31.2401C95.6932 31.2401 96.0981 31.131 96.3979 30.9178ZM93.8107 28.0693C94.1105 27.7418 94.5101 27.5807 95.0044 27.5807C95.2568 27.5755 95.5092 27.6275 95.7353 27.7366C95.9351 27.8302 96.1034 27.9758 96.2296 28.1525C96.4399 28.4488 96.5556 28.797 96.5609 29.1557H93.3322C93.3532 28.7555 93.5215 28.3656 93.8107 28.0693ZM99.7318 27.8458C100.021 27.6743 100.352 27.5807 100.694 27.5755C101.583 27.5755 102.03 28.0433 102.03 28.979V31.1414H102.172V28.953C102.172 28.4696 102.045 28.0953 101.798 27.8354C101.551 27.5755 101.188 27.4456 100.71 27.4456C100.379 27.4456 100.047 27.5235 99.7528 27.6743C99.4741 27.8094 99.2269 28.0069 99.0324 28.2513V27.5391H98.8904V31.1414H99.0324V28.4748C99.2164 28.2149 99.453 28.0017 99.7318 27.8458ZM104.848 30.6787C105.201 31.053 105.669 31.2401 106.247 31.2401C106.71 31.2401 107.109 31.1258 107.451 30.9022V30.7463C107.099 30.9906 106.678 31.1154 106.247 31.105C105.768 31.1154 105.306 30.9334 104.969 30.6008C104.633 30.2629 104.449 29.8107 104.454 29.3428C104.443 28.875 104.627 28.4228 104.969 28.0901C105.3 27.7522 105.768 27.5651 106.247 27.5755C106.647 27.5703 107.036 27.6795 107.378 27.8874V27.7315C107.036 27.5339 106.647 27.43 106.247 27.4404C105.674 27.4404 105.206 27.6275 104.848 28.0069C104.133 28.7659 104.133 29.925 104.848 30.6787ZM110.264 32.4357C110.443 32.2589 110.633 31.9678 110.827 31.5676L112.762 27.5391H112.604L111.016 30.8295L109.397 27.5391H109.239L110.938 30.9958C110.696 31.552 110.48 31.9574 110.291 32.2069C110.107 32.4461 109.886 32.5656 109.623 32.5656C109.455 32.5656 109.292 32.524 109.15 32.4409V32.5812C109.297 32.6592 109.465 32.7008 109.633 32.6956C109.87 32.706 110.101 32.6072 110.264 32.4357Z" fill="#333333"/>
<path fill-rule="evenodd" clip-rule="evenodd" d="M6.1312 7.79712L21.6857 11.6437L36.7881 7.79712V30.1694C36.7881 30.9855 38.7547 31.4585 38.7547 31.4585H35.179V10.0427L21.6647 13.4214L7.99269 10.0427V31.4585H6.1312V7.79712Z" fill="#333333"/>
<path fill-rule="evenodd" clip-rule="evenodd" d="M32.4134 14.96L22.638 20.4231L32.466 25.8186L24.999 20.4283L32.4134 14.96Z" fill="#333333"/>
<path fill-rule="evenodd" clip-rule="evenodd" d="M11.0585 14.9908C11.0585 14.9908 17.1846 14.6426 20.8287 20.428C17.7683 25.5896 11.679 25.8443 11.6737 25.8443L11.0795 25.8599L11.0585 14.9908Z" fill="#333333"/>
<path fill-rule="evenodd" clip-rule="evenodd" d="M11.4635 15.495C11.4635 15.495 17.0532 15.1831 20.3503 20.4071C17.5843 25.0698 12.0735 25.3505 12.0735 25.3505L11.4792 25.3661L11.4635 15.495Z" fill="#EAC63C"/>
<path d="M15.0864 23.5005C15.8473 23.5005 16.4641 22.1576 16.4641 20.5012C16.4641 18.8448 15.8473 17.502 15.0864 17.502C14.3255 17.502 13.7087 18.8448 13.7087 20.5012C13.7087 22.1576 14.3255 23.5005 15.0864 23.5005Z" fill="black"/>
<path fill-rule="evenodd" clip-rule="evenodd" d="M14.9919 17.1172L15.3599 19.8254L15.9121 17.3095" fill="#EAC63C"/>
</g>
</svg>
