<svg width="672" height="388" viewBox="0 0 672 388" fill="none" xmlns="http://www.w3.org/2000/svg">
<path d="M153.7 245.45H177.77V289.53H153.7V331H104.11V289.53H9.86V237.33L98.02 128H153.7V245.45ZM56.26 245.45H106.14V185.71H98.02L56.26 237.33V245.45ZM547.704 245.45H571.774V289.53H547.704V331H498.114V289.53H403.864V237.33L492.024 128H547.704V245.45ZM450.264 245.45H500.144V185.71H492.024L450.264 237.33V245.45Z" fill="#2E2E43"/>
<path d="M153.7 245.45H151.7V247.45H153.7V245.45ZM177.77 245.45H179.77V243.45H177.77V245.45ZM177.77 289.53V291.53H179.77V289.53H177.77ZM153.7 289.53V287.53H151.7V289.53H153.7ZM153.7 331V333H155.7V331H153.7ZM104.11 331H102.11V333H104.11V331ZM104.11 289.53H106.11V287.53H104.11V289.53ZM9.86 289.53H7.86V291.53H9.86V289.53ZM9.86 237.33L8.30311 236.075L7.86 236.624V237.33H9.86ZM98.02 128V126H97.0635L96.4631 126.745L98.02 128ZM153.7 128H155.7V126H153.7V128ZM56.26 245.45H54.26V247.45H56.26V245.45ZM106.14 245.45V247.45H108.14V245.45H106.14ZM106.14 185.71H108.14V183.71H106.14V185.71ZM98.02 185.71V183.71H97.0655L96.4651 184.452L98.02 185.71ZM56.26 237.33L54.7051 236.072L54.26 236.622V237.33H56.26ZM153.7 247.45H177.77V243.45H153.7V247.45ZM175.77 245.45V289.53H179.77V245.45H175.77ZM177.77 287.53H153.7V291.53H177.77V287.53ZM151.7 289.53V331H155.7V289.53H151.7ZM153.7 329H104.11V333H153.7V329ZM106.11 331V289.53H102.11V331H106.11ZM104.11 287.53H9.86V291.53H104.11V287.53ZM11.86 289.53V237.33H7.86V289.53H11.86ZM11.4169 238.585L99.5769 129.255L96.4631 126.745L8.30311 236.075L11.4169 238.585ZM98.02 130H153.7V126H98.02V130ZM151.7 128V245.45H155.7V128H151.7ZM56.26 247.45H106.14V243.45H56.26V247.45ZM108.14 245.45V185.71H104.14V245.45H108.14ZM106.14 183.71H98.02V187.71H106.14V183.71ZM96.4651 184.452L54.7051 236.072L57.8149 238.588L99.5749 186.968L96.4651 184.452ZM54.26 237.33V245.45H58.26V237.33H54.26ZM547.704 245.45H545.704V247.45H547.704V245.45ZM571.774 245.45H573.774V243.45H571.774V245.45ZM571.774 289.53V291.53H573.774V289.53H571.774ZM547.704 289.53V287.53H545.704V289.53H547.704ZM547.704 331V333H549.704V331H547.704ZM498.114 331H496.114V333H498.114V331ZM498.114 289.53H500.114V287.53H498.114V289.53ZM403.864 289.53H401.864V291.53H403.864V289.53ZM403.864 237.33L402.307 236.075L401.864 236.624V237.33H403.864ZM492.024 128V126H491.067L490.467 126.745L492.024 128ZM547.704 128H549.704V126H547.704V128ZM450.264 245.45H448.264V247.45H450.264V245.45ZM500.144 245.45V247.45H502.144V245.45H500.144ZM500.144 185.71H502.144V183.71H500.144V185.71ZM492.024 185.71V183.71H491.069L490.469 184.452L492.024 185.71ZM450.264 237.33L448.709 236.072L448.264 236.622V237.33H450.264ZM547.704 247.45H571.774V243.45H547.704V247.45ZM569.774 245.45V289.53H573.774V245.45H569.774ZM571.774 287.53H547.704V291.53H571.774V287.53ZM545.704 289.53V331H549.704V289.53H545.704ZM547.704 329H498.114V333H547.704V329ZM500.114 331V289.53H496.114V331H500.114ZM498.114 287.53H403.864V291.53H498.114V287.53ZM405.864 289.53V237.33H401.864V289.53H405.864ZM405.421 238.585L493.581 129.255L490.467 126.745L402.307 236.075L405.421 238.585ZM492.024 130H547.704V126H492.024V130ZM545.704 128V245.45H549.704V128H545.704ZM450.264 247.45H500.144V243.45H450.264V247.45ZM502.144 245.45V185.71H498.144V245.45H502.144ZM500.144 183.71H492.024V187.71H500.144V183.71ZM490.469 184.452L448.709 236.072L451.819 238.588L493.579 186.968L490.469 184.452ZM448.264 237.33V245.45H452.264V237.33H448.264Z" fill="#12EAC4"/>
<g clip-path="url(#clip0)">
<path d="M302.598 294.232C302.432 292.299 300.834 290.835 298.903 290.636L298.8 291.63L298.903 290.636C269.09 287.556 246.715 264.217 246.715 236.464C246.715 234.877 246.81 233.197 246.997 231.472C247.218 229.439 245.777 227.662 243.783 227.232C241.798 226.804 239.716 227.801 238.967 229.679C235.669 237.947 233.97 245.417 233.97 251.867C233.97 278.514 257.281 300.067 285.778 300.067C290.449 300.067 295.077 299.489 299.538 298.349L299.539 298.349C301.423 297.866 302.764 296.172 302.598 294.232ZM302.598 294.232L301.601 294.317L302.598 294.231C302.598 294.231 302.598 294.231 302.598 294.232ZM292.986 113.894L292.986 113.894C301.682 124.568 318.527 146.204 333.667 171.194L334.522 170.676L333.667 171.194C353.196 203.426 362.991 229.924 362.99 250.01C362.99 290.807 329.797 324 289 324C248.202 324 215.01 290.807 215.01 250.01C215.01 229.937 224.806 203.444 244.334 171.207C259.474 146.215 276.32 124.572 285.015 113.895C285.991 112.696 287.455 112 289.001 112L289.001 112C290.546 112 292.01 112.695 292.986 113.894Z" fill="#2E2E43" stroke="#12EAC4" stroke-width="2"/>
</g>
<path d="M101.712 214.738H108.206C107.866 217.367 106.767 219.475 104.908 221.062C103.072 222.649 100.681 223.442 97.7339 223.442C94.0392 223.442 91.1379 222.309 89.0299 220.042C86.9446 217.753 85.9019 214.693 85.9019 210.862C85.9019 207.031 86.9446 203.983 89.0299 201.716C91.1379 199.427 94.0392 198.282 97.7339 198.282C100.545 198.282 102.845 199.019 104.636 200.492C106.449 201.943 107.571 203.858 108.002 206.238H101.44C101.032 204.651 99.7966 203.858 97.7339 203.858C96.0112 203.858 94.6852 204.504 93.7559 205.796C92.8266 207.065 92.3619 208.754 92.3619 210.862C92.3619 212.97 92.8266 214.67 93.7559 215.962C94.6852 217.231 96.0112 217.866 97.7339 217.866C98.8446 217.866 99.7399 217.594 100.42 217.05C101.123 216.506 101.553 215.735 101.712 214.738ZM110.825 210.148V205.32H127.961V210.148H122.351V223H116.435V210.148H110.825ZM142.63 223.442C140.681 223.442 139.207 222.796 138.21 221.504H137.258V229.8H131.342V205.32H137.054V206.816H138.006C139.049 205.524 140.59 204.878 142.63 204.878C144.897 204.878 146.687 205.739 148.002 207.462C149.317 209.162 149.974 211.395 149.974 214.16C149.974 216.903 149.305 219.135 147.968 220.858C146.631 222.581 144.851 223.442 142.63 223.442ZM143.208 210.964C142.641 210.125 141.769 209.706 140.59 209.706C139.411 209.706 138.516 210.125 137.904 210.964C137.315 211.803 137.02 212.868 137.02 214.16C137.02 215.452 137.315 216.517 137.904 217.356C138.516 218.195 139.411 218.614 140.59 218.614C141.769 218.614 142.641 218.195 143.208 217.356C143.775 216.517 144.058 215.452 144.058 214.16C144.058 212.868 143.775 211.803 143.208 210.964ZM161.337 204.878C166.958 204.878 169.769 207.201 169.769 211.848V223H164.363V221.64H163.411C162.346 222.841 160.793 223.442 158.753 223.442C156.872 223.442 155.364 222.864 154.231 221.708C153.12 220.529 152.565 219.124 152.565 217.492C152.565 215.928 153.188 214.557 154.435 213.378C155.682 212.199 157.54 211.61 160.011 211.61H164.091V211.304C164.091 209.808 163.286 209.06 161.677 209.06C160.249 209.06 159.467 209.57 159.331 210.59H153.483C153.528 208.89 154.276 207.519 155.727 206.476C157.2 205.411 159.07 204.878 161.337 204.878ZM164.091 216.03V214.976H161.235C160.396 214.976 159.728 215.157 159.229 215.52C158.73 215.86 158.481 216.359 158.481 217.016C158.481 218.399 159.32 219.09 160.997 219.09C161.949 219.09 162.697 218.807 163.241 218.24C163.808 217.651 164.091 216.914 164.091 216.03ZM191.989 223H186.073V216.336H180.157V223H174.241V205.32H180.157V211.508H186.073V205.32H191.989V223ZM201.684 223H196.686V205.32H202.432V213.344H203.248L209.572 205.32H214.57V223H208.824V214.976H208.008L201.684 223ZM230.824 205.32H236.74V218.172H239.8V227.862H234.292V223H219.264V205.32H225.18V218.172H230.824V205.32ZM250.853 204.878C256.474 204.878 259.285 207.201 259.285 211.848V223H253.879V221.64H252.927C251.861 222.841 250.309 223.442 248.269 223.442C246.387 223.442 244.88 222.864 243.747 221.708C242.636 220.529 242.081 219.124 242.081 217.492C242.081 215.928 242.704 214.557 243.951 213.378C245.197 212.199 247.056 211.61 249.527 211.61H253.607V211.304C253.607 209.808 252.802 209.06 251.193 209.06C249.765 209.06 248.983 209.57 248.847 210.59H242.999C243.044 208.89 243.792 207.519 245.243 206.476C246.716 205.411 248.586 204.878 250.853 204.878ZM253.607 216.03V214.976H250.751C249.912 214.976 249.243 215.157 248.745 215.52C248.246 215.86 247.997 216.359 247.997 217.016C247.997 218.399 248.835 219.09 250.513 219.09C251.465 219.09 252.213 218.807 252.757 218.24C253.323 217.651 253.607 216.914 253.607 216.03ZM290.967 223H285.051V216.336H279.135V223H273.219V205.32H279.135V211.508H285.051V205.32H290.967V223ZM306.68 217.288H312.664C312.256 219.26 311.327 220.779 309.876 221.844C308.426 222.909 306.465 223.442 303.994 223.442C301.161 223.442 298.906 222.615 297.228 220.96C295.551 219.305 294.712 217.039 294.712 214.16C294.712 211.281 295.54 209.015 297.194 207.36C298.849 205.705 301.07 204.878 303.858 204.878C306.646 204.878 308.834 205.66 310.42 207.224C312.007 208.788 312.8 210.907 312.8 213.582V214.942H300.56C300.81 217.39 301.988 218.614 304.096 218.614C305.456 218.614 306.318 218.172 306.68 217.288ZM303.858 209.094C302.272 209.094 301.252 209.865 300.798 211.406H306.748C306.431 209.865 305.468 209.094 303.858 209.094ZM343.76 223H337.844V216.336H331.928V223H326.012V205.32H331.928V211.508H337.844V205.32H343.76V223ZM356.073 204.878C361.695 204.878 364.505 207.201 364.505 211.848V223H359.099V221.64H358.147C357.082 222.841 355.529 223.442 353.489 223.442C351.608 223.442 350.101 222.864 348.967 221.708C347.857 220.529 347.301 219.124 347.301 217.492C347.301 215.928 347.925 214.557 349.171 213.378C350.418 212.199 352.277 211.61 354.747 211.61H358.827V211.304C358.827 209.808 358.023 209.06 356.413 209.06C354.985 209.06 354.203 209.57 354.067 210.59H348.219C348.265 208.89 349.013 207.519 350.463 206.476C351.937 205.411 353.807 204.878 356.073 204.878ZM358.827 216.03V214.976H355.971C355.133 214.976 354.464 215.157 353.965 215.52C353.467 215.86 353.217 216.359 353.217 217.016C353.217 218.399 354.056 219.09 355.733 219.09C356.685 219.09 357.433 218.807 357.977 218.24C358.544 217.651 358.827 216.914 358.827 216.03ZM373.975 223H368.977V205.32H374.723V213.344H375.539L381.863 205.32H386.861V223H381.115V214.976H380.299L373.975 223ZM382.645 202.566C381.512 203.473 379.936 203.926 377.919 203.926C375.902 203.926 374.326 203.473 373.193 202.566C372.06 201.637 371.391 200.356 371.187 198.724H375.675C376.015 199.767 376.763 200.288 377.919 200.288C379.075 200.288 379.823 199.767 380.163 198.724H384.651C384.447 200.356 383.778 201.637 382.645 202.566ZM409.677 218.172H412.737V227.862H407.229V223H395.397V227.862H389.889V218.172H392.677C393.448 215.815 393.833 213.276 393.833 210.556V205.32H409.677V218.172ZM403.761 218.172V210.148H399.137V210.59C399.137 213.287 398.808 215.815 398.151 218.172H403.761ZM427.175 217.288H433.159C432.751 219.26 431.821 220.779 430.371 221.844C428.92 222.909 426.959 223.442 424.489 223.442C421.655 223.442 419.4 222.615 417.723 220.96C416.045 219.305 415.207 217.039 415.207 214.16C415.207 211.281 416.034 209.015 417.689 207.36C419.343 205.705 421.565 204.878 424.353 204.878C427.141 204.878 429.328 205.66 430.915 207.224C432.501 208.788 433.295 210.907 433.295 213.582V214.942H421.055C421.304 217.39 422.483 218.614 424.591 218.614C425.951 218.614 426.812 218.172 427.175 217.288ZM424.353 209.094C422.766 209.094 421.746 209.865 421.293 211.406H427.243C426.925 209.865 425.962 209.094 424.353 209.094ZM454.791 223H448.875V216.336H442.959V223H437.043V205.32H442.959V211.508H448.875V205.32H454.791V223ZM467.105 204.878C472.726 204.878 475.537 207.201 475.537 211.848V223H470.131V221.64H469.179C468.113 222.841 466.561 223.442 464.521 223.442C462.639 223.442 461.132 222.864 459.999 221.708C458.888 220.529 458.333 219.124 458.333 217.492C458.333 215.928 458.956 214.557 460.203 213.378C461.449 212.199 463.308 211.61 465.779 211.61H469.859V211.304C469.859 209.808 469.054 209.06 467.445 209.06C466.017 209.06 465.235 209.57 465.099 210.59H459.251C459.296 208.89 460.044 207.519 461.495 206.476C462.968 205.411 464.838 204.878 467.105 204.878ZM469.859 216.03V214.976H467.003C466.164 214.976 465.495 215.157 464.997 215.52C464.498 215.86 464.249 216.359 464.249 217.016C464.249 218.399 465.087 219.09 466.765 219.09C467.717 219.09 468.465 218.807 469.009 218.24C469.575 217.651 469.859 216.914 469.859 216.03Z" fill="white"/>
<defs>
<clipPath id="clip0">
<rect width="214" height="214" fill="white" transform="translate(182 111)"/>
</clipPath>
</defs>
</svg>
